<svg width="14" height="19" viewBox="0 0 14 19" fill="none" xmlns="http://www.w3.org/2000/svg">
<path d="M3.99951 14.5C3.99951 15.05 3.54951 15.5 2.99951 15.5C2.44951 15.5 1.99951 15.05 1.99951 14.5C1.99951 13.95 2.44951 13.5 2.99951 13.5C3.54951 13.5 3.99951 13.95 3.99951 14.5ZM6.99951 13.5C6.44951 13.5 5.99951 13.95 5.99951 14.5C5.99951 15.05 6.44951 15.5 6.99951 15.5C7.54951 15.5 7.99951 15.05 7.99951 14.5C7.99951 13.95 7.54951 13.5 6.99951 13.5ZM10.9995 13.5C10.4495 13.5 9.99951 13.95 9.99951 14.5C9.99951 15.05 10.4495 15.5 10.9995 15.5C11.5495 15.5 11.9995 15.05 11.9995 14.5C11.9995 13.95 11.5495 13.5 10.9995 13.5ZM13.9995 9.5V11.5H-0.000488281V9.5C-0.000488281 5.97 2.60951 3.07 5.99951 2.58V0.5H7.99951V2.58C11.3895 3.07 13.9995 5.97 13.9995 9.5ZM11.9995 9.5C11.9995 6.74 9.75951 4.5 6.99951 4.5C4.23951 4.5 1.99951 6.74 1.99951 9.5H11.9995ZM2.99951 16.5C2.44951 16.5 1.99951 16.95 1.99951 17.5C1.99951 18.05 2.44951 18.5 2.99951 18.5C3.54951 18.5 3.99951 18.05 3.99951 17.5C3.99951 16.95 3.54951 16.5 2.99951 16.5ZM6.99951 16.5C6.44951 16.5 5.99951 16.95 5.99951 17.5C5.99951 18.05 6.44951 18.5 6.99951 18.5C7.54951 18.5 7.99951 18.05 7.99951 17.5C7.99951 16.95 7.54951 16.5 6.99951 16.5ZM10.9995 16.5C10.4495 16.5 9.99951 16.95 9.99951 17.5C9.99951 18.05 10.4495 18.5 10.9995 18.5C11.5495 18.5 11.9995 18.05 11.9995 17.5C11.9995 16.95 11.5495 16.5 10.9995 16.5Z" fill="#383939"/>
</svg>
