<svg width="20" height="15" viewBox="0 0 20 15" fill="none" xmlns="http://www.w3.org/2000/svg">
<path d="M18.9995 6.28V3.5C18.9995 1.85 17.6495 0.5 15.9995 0.5H11.9995C11.2295 0.5 10.5295 0.8 9.99951 1.28C9.46951 0.8 8.76951 0.5 7.99951 0.5H3.99951C2.34951 0.5 0.999512 1.85 0.999512 3.5V6.28C0.389512 6.83 -0.000488281 7.62 -0.000488281 8.5V14.5H1.99951V12.5H17.9995V14.5H19.9995V8.5C19.9995 7.62 19.6095 6.83 18.9995 6.28ZM11.9995 2.5H15.9995C16.5495 2.5 16.9995 2.95 16.9995 3.5V5.5H10.9995V3.5C10.9995 2.95 11.4495 2.5 11.9995 2.5ZM2.99951 3.5C2.99951 2.95 3.44951 2.5 3.99951 2.5H7.99951C8.54951 2.5 8.99951 2.95 8.99951 3.5V5.5H2.99951V3.5ZM1.99951 10.5V8.5C1.99951 7.95 2.44951 7.5 2.99951 7.5H16.9995C17.5495 7.5 17.9995 7.95 17.9995 8.5V10.5H1.99951Z" fill="#383939"/>
</svg>
