<svg width="16" height="15" viewBox="0 0 16 15" fill="none" xmlns="http://www.w3.org/2000/svg">
<path d="M14.0545 1.38375C13.8795 0.8675 13.3895 0.5 12.812 0.5H3.18701C2.60951 0.5 2.12826 0.8675 1.94451 1.38375L0.124512 6.625V13.625C0.124512 14.1062 0.518262 14.5 0.999512 14.5H1.87451C2.35576 14.5 2.74951 14.1062 2.74951 13.625V12.75H13.2495V13.625C13.2495 14.1062 13.6433 14.5 14.1245 14.5H14.9995C15.4808 14.5 15.8745 14.1062 15.8745 13.625V6.625L14.0545 1.38375ZM3.49326 2.25H12.497L13.407 4.875H2.58326L3.49326 2.25ZM14.1245 11H1.87451V6.9225L1.97951 6.625H14.0283L14.1245 6.9225V11Z" fill="#383939"/>
<path d="M4.06201 10.125C4.78689 10.125 5.37451 9.53737 5.37451 8.8125C5.37451 8.08763 4.78689 7.5 4.06201 7.5C3.33714 7.5 2.74951 8.08763 2.74951 8.8125C2.74951 9.53737 3.33714 10.125 4.06201 10.125Z" fill="#383939"/>
<path d="M11.937 10.125C12.6619 10.125 13.2495 9.53737 13.2495 8.8125C13.2495 8.08763 12.6619 7.5 11.937 7.5C11.2121 7.5 10.6245 8.08763 10.6245 8.8125C10.6245 9.53737 11.2121 10.125 11.937 10.125Z" fill="#383939"/>
</svg>
