<svg width="400" height="401" viewBox="0 0 400 401" fill="none" xmlns="http://www.w3.org/2000/svg">
<path d="M293.587 200.116L295.168 218.207L306.816 217.192L305.287 197.639L293.587 200.116Z" fill="#E86C7F"/>
<path d="M332.364 208.878L333.761 224.742L343.972 223.846L343.998 207.864L332.364 208.878Z" fill="#E86C7F"/>
<path d="M265.615 149.573L268.816 219.986L254.006 221.277L186.466 220.802L124.183 219.511L122.681 149.652L212.08 148.216L265.615 149.573Z" fill="#E18BB7"/>
<path d="M265.325 143.077L265.614 149.573L212.08 148.215L122.681 149.652L121.455 91.5979L265.325 143.077Z" fill="#B7D7E5"/>
<path d="M148.439 149.243L150.785 190.537L151.575 220.078L157.268 219.985L154.935 149.138L148.439 149.243Z" fill="#F6EADC"/>
<path d="M196.756 148.466L198.219 220.881L203.094 220.921L202.857 148.374L196.756 148.466Z" fill="#F6EADC"/>
<path d="M232.476 148.742L235.164 221.145L240.896 221.184L237.088 148.861L232.476 148.742Z" fill="#F6EADC"/>
<path d="M123.458 185.583C123.458 185.583 100.571 184.713 85.2867 188.837C69.9893 192.974 62.3207 198.956 55.3901 206.506C48.4595 214.056 40.409 222.225 36.8383 240.303C33.2675 258.38 35.0859 270.371 40.6725 284.021C46.246 297.671 64.8506 311.006 88.9101 314.352C112.956 317.686 143.34 306.947 161.128 304.352C178.916 301.756 187.915 305.089 196.756 312.508C205.597 319.926 210.92 339.453 210.92 339.453H311.625C311.625 339.453 311.48 316.118 308.753 302.823C306.025 289.529 296.71 277.367 286.762 267.67C276.801 257.959 264.073 249.75 245.653 246.548C227.232 243.333 217.469 243.715 196.901 246.548C176.333 249.381 145.949 258.96 145.949 258.96C145.949 258.96 120.006 267.301 107.409 263.598C94.813 259.896 91.2291 250.633 91.2291 250.633C91.2291 250.633 88.673 242.595 92.0988 232.727C95.5245 222.858 109.755 220.802 109.755 220.802L124.209 219.537L123.484 185.609L123.458 185.583Z" fill="#F2CD5E"/>
<path d="M307.883 80.5037C307.883 80.5037 307.079 73.4676 305.103 67.7229C303.812 63.9809 297.303 60.8713 293.574 61.6092C289.845 62.347 287.763 64.4552 282.335 72.3609C276.906 80.2665 276.458 82.6777 275.76 89.5029C275.061 96.3281 279.014 102.402 279.014 102.402C279.014 102.402 274.719 103.391 272.11 108.687C269.501 113.984 273.098 119.966 273.098 119.966L280.451 129.98C280.451 129.98 274.93 139.849 275.048 147.333C275.167 154.817 277.644 159.191 280.477 164.87C283.31 170.549 286.815 175.332 286.815 175.332C286.815 175.332 280.925 180.194 280.398 187.177C279.858 194.147 283.942 197.823 288.514 200.208C293.086 202.58 300.742 201.315 300.742 201.315C300.742 201.315 309.636 202.185 315.064 195.755C320.493 189.338 321.758 176.794 321.758 176.794L315.921 152.88C315.921 152.88 323.958 146.028 325.381 137.042C326.804 128.056 321.916 117.805 321.916 117.805L318.622 105.696C318.622 105.696 319.32 95.6562 317.884 89.582C316.448 83.5078 307.883 80.5037 307.883 80.5037V80.5037Z" fill="#8D8F40"/>
<path d="M104.8 83.376L112.087 70.5029C112.087 70.5029 148.005 86.3142 167.677 93.482C187.348 100.65 222.476 114.406 239.565 120.625C256.654 126.844 295.695 139.005 295.695 139.005L291.136 150.521L249.592 138.531C249.592 138.531 200.564 122.799 181.88 115.894C163.183 108.99 123.734 92.7178 123.734 92.7178L104.8 83.3628V83.376Z" fill="#602E87"/>
<path d="M332.364 208.878C332.364 208.878 323.8 208.694 317.712 203.766C311.625 198.838 308.99 192.54 308.99 192.54C308.99 192.54 305.34 187.493 308.12 178.217C310.9 168.941 316.895 164.501 316.895 164.501C316.895 164.501 307.672 152.313 308.832 142.905C309.978 133.498 316.895 125.961 316.895 125.961L322.166 120.783C322.166 120.783 317.119 113.76 315.96 102.679C314.8 91.5979 316.434 88.3565 320.861 81.6499C325.289 74.9301 333.405 74.5348 339.967 76.7747C346.528 79.0279 351.522 83.0992 351.865 91.0049C352.207 98.9105 348.874 113.641 348.874 113.641C348.874 113.641 359.639 118.187 362.84 127.068C366.042 135.962 365.568 140.969 362.59 148.927C359.612 156.885 354.276 159.059 354.276 159.059C354.276 159.059 361.365 163.934 363.644 172.736C365.924 181.538 365.647 185.556 363.815 190.84C361.971 196.124 360.983 198.1 356.041 202.29C351.535 206.124 343.985 207.85 343.985 207.85L332.351 208.865L332.364 208.878Z" fill="#B3C566"/>
</svg>
