<svg width="400" height="400" viewBox="0 0 400 400" fill="none" xmlns="http://www.w3.org/2000/svg">
<g clip-path="url(#clip0_1772_44216)">
<path d="M412.56 223.73L269.09 229.15L188.15 235.4L145.34 236.8C145.34 236.8 137.37 238.84 135.21 247.24C133.06 255.64 143.35 262.94 143.35 262.94C143.35 262.94 130.6 263.49 128.25 275.83C125.9 288.17 140.14 292.15 140.14 292.15C140.14 292.15 127.56 296.42 125.76 306.75C123.96 317.08 140.14 323.51 140.14 323.51C140.14 323.51 125.9 322.35 125.9 334.3C125.9 346.25 141.2 347.91 141.2 347.91C141.2 347.91 185.5 352.45 211.61 352.45C237.72 352.45 267.74 337.8 267.74 337.8L352.9 348.42L412.56 355.93V223.73V223.73Z" fill="#EF7D5F"/>
<path d="M242.56 174.85C242.56 174.85 242.95 179.12 252.37 188.3C261.79 197.48 274.72 201.49 274.72 201.49C274.72 201.49 285.04 204.75 295.98 200.99C306.92 197.23 323.06 183.28 323.06 183.28L337.86 165.49C337.86 165.49 322.31 157.31 311.76 154.43C301.21 151.55 287.69 151.53 287.69 151.53C287.69 151.53 277.14 151.88 269.66 154.01C262.18 156.14 250.38 164.56 250.38 164.56L242.57 174.85H242.56Z" fill="#383838"/>
<path d="M142.75 204.61L126.87 193.25C126.87 193.25 111.86 183.01 100.15 181.9C88.4397 180.79 66.7197 185.72 66.7197 185.72L46.7097 193.83L33.0897 200.34L52.7797 215C52.7797 215 72.1697 229.21 80.4097 231.89C88.6597 234.57 98.4697 238.77 111.58 238.06C124.69 237.35 129.48 237.6 137.35 232.38C145.21 227.16 150.2 217.44 150.2 217.44L142.73 204.6L142.75 204.61Z" fill="#383838"/>
<path d="M195.05 388.09V223.7L193.37 182L187.49 132.05H175.82L177.8 160.51L181.5 194.32L183.51 225.9L185.43 388.09H195.05Z" fill="#8D8F40"/>
<path d="M275.08 120.48L256.33 151.57L234.17 194.61L217.31 241.49L195.05 285.81L157.25 382.33L148.94 378.28L193.77 262.55L226.5 184.38L261.39 114.74L275.08 120.48Z" fill="#8D8F40"/>
<path d="M89.7001 133.12L136.5 175.43L171.04 227.85L193.26 270.47L235.87 380.63L227.35 383.82L177.28 264.5L141.9 202.65L118.23 172.79L84.89 142.28L89.7001 133.12Z" fill="#8D8F40"/>
<path d="M179.73 172.24C179.73 172.24 175.76 154.66 167.23 147.31C158.7 139.96 147.24 136.76 147.24 136.76L122.31 129.3C122.31 129.3 122.31 141.06 125.83 151.54C129.35 162.01 134.46 169.37 134.46 169.37C134.46 169.37 141.75 177.68 150.23 180.24C158.71 182.8 171.02 182.8 171.02 182.8L180.18 182.11L179.74 172.25L179.73 172.24Z" fill="#383838"/>
<path d="M293.97 237.3L255.19 200.09C255.19 200.09 238.01 190.94 226.07 195.03C207.06 201.54 178.14 210.44 171.23 217.14C161.29 226.78 174.5 236.05 174.5 236.05L217.68 240.37L236.02 251.03L263.81 257.96L293.96 237.29L293.97 237.3Z" fill="#EF7D5F"/>
<path d="M165.36 239.83L185.5 243.81L200.77 250.57L211.17 257.97C211.17 257.97 213.83 265.71 209.4 269.03C204.97 272.35 193.76 271.74 193.76 271.74C193.76 271.74 199.22 277.03 203.65 280C208.08 282.97 209.4 288.5 209.4 288.5C209.4 288.5 210.95 292.48 204.97 296.69C199 300.89 195.99 299.84 195.99 299.84C195.99 299.84 198.12 301.56 202.76 305.1C207.41 308.64 206.9 313.83 206.9 313.83C206.9 313.83 206.19 318.11 202.43 320.54C198.67 322.97 195.5 324.06 195.5 324.06C195.5 324.06 198.55 325.9 200.55 328.34C202.54 330.77 204.38 333.44 202.54 337.19C200.71 340.94 191.26 344.93 191.26 344.93L172.9 348.41H146.29L149 236.8L165.37 239.82L165.36 239.83Z" fill="#EF7D5F"/>
<path d="M194 197.82C194 197.82 208.49 195.77 215.1 190.03C222.95 183.21 227.14 178.84 232.04 167.23C237.42 154.49 235.66 132.04 235.66 132.04C235.66 132.04 220.74 135.48 213.29 140.8C205.84 146.12 198.37 156.58 198.37 156.58C198.37 156.58 195.9 161.25 194.21 167.11C192.53 172.97 192.79 177.15 192.79 177.15L194 197.8V197.82Z" fill="#383838"/>
<path d="M21.8901 137.75C21.8901 137.75 16.0102 123.62 15.9202 115.41C15.8302 107.2 17.0202 98.93 23.4102 89.55C29.8002 80.18 38.4801 75.5 48.4001 73.51C58.3201 71.52 69.3901 74.92 69.3901 74.92L82.0702 76.84C82.0702 76.84 89.9302 85.51 94.1702 95.72C98.4102 105.94 99.6401 116.23 99.6401 116.23C99.6401 116.23 96.5602 136.95 87.8302 144.38C79.1002 151.81 66.8502 155.25 66.8502 155.25C66.8502 155.25 51.3602 158.77 39.8702 154.4C28.3802 150.03 21.8901 137.75 21.8901 137.75Z" fill="#A27CF5"/>
<path d="M51.0901 111.36L80.4601 149.44C82.6701 148.19 84.94 146.72 87.02 145.04L59.4 109.21L51.79 108.7L51.0901 111.35V111.36Z" fill="#5E2E87"/>
<path d="M39.6302 154.3L51.0903 111.36L49.4103 109.2L41.8604 115.36L32.5703 150.21C34.6403 151.83 37.0002 153.27 39.6302 154.3Z" fill="#5E2E87"/>
<path d="M20.1204 133.12L41.8604 115.37L43.7803 108.18L38.6302 107.85L17.5503 125.05C18.3503 127.99 19.3004 130.86 20.1104 133.13L20.1204 133.12Z" fill="#5E2E87"/>
<path d="M59.4001 109.22L98.9302 111.88C98.5102 109.72 97.8902 106.93 97.0002 103.85L59.1002 101.31L55.5302 104.21L59.4001 109.22V109.22Z" fill="#5E2E87"/>
<path d="M43.7802 108.17L41.8602 115.36L49.4102 109.2L48.9001 108.52L43.7802 108.17Z" fill="#5E2E87"/>
<path d="M49.41 109.2L51.0901 111.36L51.79 108.71L50.16 108.61L49.41 109.2Z" fill="#5E2E87"/>
<path d="M59.4001 109.22L55.5302 104.21L52.2802 106.87L51.7902 108.71L59.4001 109.22Z" fill="#5E2E87"/>
<path d="M49.4102 109.2L50.1602 108.61L48.9001 108.52L49.4102 109.2Z" fill="#5E2E87"/>
<path d="M50.1603 108.61L51.7903 108.71L52.2803 106.87L50.1603 108.61Z" fill="#5E2E87"/>
<path d="M48.9001 108.52L50.1602 108.61L52.2802 106.87L53.6501 101.77L52.9702 100.9L47.5802 100.54L45.3402 102.36L45.0302 103.52L48.9001 108.52Z" fill="#5E2E87"/>
<path d="M48.9001 108.52L45.0302 103.52L43.7802 108.17L48.9001 108.52Z" fill="#5E2E87"/>
<path d="M53.6503 101.77L52.2803 106.87L55.5303 104.21L53.6503 101.77Z" fill="#5E2E87"/>
<path d="M38.6302 107.84L43.7803 108.17L45.0303 103.52L44.6104 102.96L38.6302 107.84Z" fill="#5E2E87"/>
<path d="M38.6302 107.84L44.6104 102.96L42.4703 100.19L18.6204 98.5901C17.6004 101.23 16.9303 103.81 16.5303 106.34L38.6302 107.83V107.84Z" fill="#5E2E87"/>
<path d="M55.5303 104.21L59.0903 101.31L53.8704 100.95L53.6503 101.77L55.5303 104.21Z" fill="#5E2E87"/>
<path d="M53.8702 100.95L59.1002 101.31L84.9001 80.2601C83.2401 78.1201 82.0902 76.8501 82.0902 76.8501L77.4702 76.1501L55.7701 93.8601L53.8801 100.96L53.8702 100.95Z" fill="#5E2E87"/>
<path d="M45.0303 103.52L45.3403 102.36L44.6104 102.96L45.0303 103.52Z" fill="#5E2E87"/>
<path d="M52.9701 100.9L53.65 101.77L53.8701 100.95L52.9701 100.9Z" fill="#5E2E87"/>
<path d="M42.4703 100.19L44.6104 102.96L45.3403 102.36L45.8604 100.41L42.4703 100.19Z" fill="#5E2E87"/>
<path d="M52.9702 100.9L53.8702 100.95L55.7502 93.8501L50.7102 97.9801L52.9702 100.9Z" fill="#5E2E87"/>
<path d="M47.5802 100.54L52.9702 100.9L50.7102 97.98L47.5802 100.54Z" fill="#5E2E87"/>
<path d="M45.3401 102.36L47.5801 100.54L45.8601 100.41L45.3401 102.36Z" fill="#5E2E87"/>
<path d="M45.8602 100.41L47.5802 100.54L50.7102 97.9799L47.5902 93.9299L45.8602 100.41Z" fill="#5E2E87"/>
<path d="M42.4703 100.19L45.8604 100.41L47.5903 93.92L35.4904 78.23C33.2404 79.52 31.1202 81.06 29.1302 82.89L42.4703 100.19V100.19Z" fill="#5E2E87"/>
<path d="M50.7102 97.9801L55.7502 93.8601L61.2402 73.2801C58.8102 72.9801 56.0202 72.8001 53.1902 72.9401L47.5902 93.9301L50.7102 97.9801V97.9801Z" fill="#5E2E87"/>
<path d="M139.66 71.88C143.21 63.64 153.85 55.23 153.85 55.23C153.85 55.23 168.64 47.27 178.64 47.71C188.63 48.15 201.63 55.37 201.63 55.37C201.63 55.37 214.94 62.89 219.09 75.88C223.23 88.87 222.95 101.43 222.95 101.43C222.95 101.43 215.04 117.14 209.55 122.27C204.06 127.4 193.33 131.7 193.33 131.7L181.76 134.22L163.54 130.81C163.54 130.81 150.77 123.61 145.38 116.74C139.99 109.87 136.52 93.41 136.52 93.41C136.52 93.41 136.12 80.1 139.67 71.86L139.66 71.88Z" fill="#A27CF5"/>
<path d="M168.88 88.8201L139.62 104.65C140.45 107.14 141.44 109.73 142.55 112.04L177.78 92.9701L176.83 91.3101L168.88 88.8201V88.8201Z" fill="#5E2E87"/>
<path d="M137.61 79.02L168.88 88.82L173.86 86.13L171.05 81.24L139.86 71.46C139.79 71.6 139.73 71.74 139.67 71.89C138.75 74.03 138.08 76.52 137.62 79.03L137.61 79.02Z" fill="#5E2E87"/>
<path d="M155.6 54.3499L171.04 81.2399L178.55 83.5899L178.85 83.4199L178.65 78.6599L162.86 51.1599C159.82 52.3299 157.2 53.5599 155.6 54.3499V54.3499Z" fill="#5E2E87"/>
<path d="M179.42 95.8201L181.11 134.12L181.76 134.24L188.93 132.67L187.96 110.69L179.42 95.8201Z" fill="#5E2E87"/>
<path d="M168.88 88.8199L176.83 91.3099L173.86 86.1299L168.88 88.8199Z" fill="#5E2E87"/>
<path d="M171.04 81.24L173.86 86.13L178.56 83.59L171.04 81.24Z" fill="#5E2E87"/>
<path d="M173.86 86.1301L176.83 91.3101L179.25 92.0701L178.88 83.6901L178.56 83.5901L173.86 86.1301Z" fill="#5E2E87"/>
<path d="M176.83 91.3101L177.77 92.9701L179.25 92.1701V92.0701L176.83 91.3101Z" fill="#5E2E87"/>
<path d="M177.77 92.9699L179.42 95.8199L179.25 92.1699L177.77 92.9699Z" fill="#5E2E87"/>
<path d="M179.25 92.1699L179.42 95.8199L187.96 110.69L187.24 94.5699L179.37 92.1099L179.25 92.1699Z" fill="#5E2E87"/>
<path d="M179.25 92.0701V92.1701L179.37 92.1101L179.25 92.0701Z" fill="#5E2E87"/>
<path d="M178.88 83.6899L179.25 92.0699L179.37 92.1099L184.71 89.2299L182.12 84.7099L178.88 83.6899Z" fill="#5E2E87"/>
<path d="M179.37 92.11L187.24 94.57L187.2 93.55L184.71 89.23L179.37 92.11Z" fill="#5E2E87"/>
<path d="M178.56 83.5899L178.88 83.6899L178.86 83.4199L178.56 83.5899Z" fill="#5E2E87"/>
<path d="M178.86 83.4199L178.88 83.6899L182.12 84.7099L180.79 82.3799L178.86 83.4199Z" fill="#5E2E87"/>
<path d="M178.86 83.4199L180.79 82.3799L178.65 78.6599L178.86 83.4199Z" fill="#5E2E87"/>
<path d="M187.24 94.5701L187.96 110.69L198.63 129.3C200.74 128.25 203.21 126.91 205.48 125.42L187.89 94.7901L187.23 94.5801L187.24 94.5701Z" fill="#5E2E87"/>
<path d="M177.28 47.7L178.66 78.66L180.8 82.3899L186.58 79.26L185.23 48.79C183 48.22 180.76 47.82 178.65 47.72C178.2 47.7 177.76 47.7 177.29 47.72L177.28 47.7Z" fill="#5E2E87"/>
<path d="M180.79 82.38L182.12 84.71L186.88 86.21L186.57 79.25L180.79 82.38Z" fill="#5E2E87"/>
<path d="M182.12 84.71L184.71 89.23L186.95 88L186.88 86.21L182.12 84.71Z" fill="#5E2E87"/>
<path d="M184.71 89.23L187.2 93.55L186.95 88L184.71 89.23Z" fill="#5E2E87"/>
<path d="M187.24 94.57L187.9 94.78L187.2 93.55L187.24 94.57Z" fill="#5E2E87"/>
<path d="M186.95 87.9999L187.2 93.5399L187.9 94.7699L221.01 105.14C222.2 102.91 222.95 101.43 222.95 101.43C222.95 101.43 222.98 99.9499 222.85 97.4699L189.04 86.8699L186.95 87.9899V87.9999Z" fill="#5E2E87"/>
<path d="M186.88 86.21L186.95 88L189.04 86.88L186.88 86.21Z" fill="#5E2E87"/>
<path d="M186.57 79.25L186.88 86.21L189.05 86.89L217.32 71.6C216.07 69.15 214.53 66.94 212.91 65.01L186.58 79.25H186.57Z" fill="#5E2E87"/>
<path d="M282.94 34.5701C293.46 36.2701 310.47 46.7501 310.47 46.7501C310.47 46.7501 323.41 62.7101 325.57 71.4501C327.73 80.1901 322.64 95.3101 322.64 95.3101C322.64 95.3101 318.91 106.34 313.99 112.45C309.07 118.56 297.36 124.5 297.36 124.5L277 126.17L260.86 124.56L252.18 115.06L238.46 94.7302C238.46 94.7302 234.96 72.1202 239.17 61.5502C243.38 50.9802 249.99 44.0301 249.99 44.0301L261.91 37.9601C261.91 37.9601 272.43 32.8701 282.95 34.5701H282.94Z" fill="#A27CF5"/>
<path d="M278.05 76.0002L237.18 81.1602C237.3 84.0802 237.53 86.7902 237.76 89.0302L281.04 83.5602L282.08 81.4002L281.49 78.6702L278.05 75.9902V76.0002Z" fill="#5E2E87"/>
<path d="M245.16 50.2702L278.05 75.9902L280.84 75.6402L278.9 66.6502L249.98 44.0302C249.98 44.0302 247.81 46.3202 245.17 50.2702H245.16Z" fill="#5E2E87"/>
<path d="M261.39 124.61L269.72 125.44L284.79 93.9701L282.5 83.3801L281.04 83.5601L261.39 124.61Z" fill="#5E2E87"/>
<path d="M272.04 34.8302L278.89 66.6602L286.35 72.4802L287.64 69.7802L279.98 34.2802C277.19 34.1402 274.48 34.3902 272.04 34.8402V34.8302Z" fill="#5E2E87"/>
<path d="M278.05 76.0001L281.49 78.6801L280.84 75.6501L278.05 76.0001Z" fill="#5E2E87"/>
<path d="M278.89 66.6602L280.84 75.6502L285.08 75.1002L286.35 72.4702L278.89 66.6602Z" fill="#5E2E87"/>
<path d="M280.84 75.6501L281.49 78.6801L282.86 79.7501L285.08 75.1001L280.84 75.6501Z" fill="#5E2E87"/>
<path d="M282.08 81.4001L281.04 83.5601L282.5 83.3801L282.08 81.4001Z" fill="#5E2E87"/>
<path d="M282.86 79.7502L281.49 78.6802L282.08 81.4002L282.86 79.7502Z" fill="#5E2E87"/>
<path d="M282.86 79.7502L282.08 81.4002L282.5 83.3802L286.8 82.8402L282.86 79.7502Z" fill="#5E2E87"/>
<path d="M282.5 83.3801L284.79 93.9701L289.22 84.7201L286.8 82.8401L282.5 83.3801Z" fill="#5E2E87"/>
<path d="M285.08 75.1001L282.86 79.7501L286.8 82.8401L290.34 82.3801L290.36 82.3601L288.69 74.6501L285.08 75.1001Z" fill="#5E2E87"/>
<path d="M284.79 93.9702L291.47 124.98L297.35 124.5C297.35 124.5 298.06 124.14 299.22 123.5L291.2 86.2702L289.22 84.7302L284.79 93.9802V93.9702Z" fill="#5E2E87"/>
<path d="M285.08 75.1002L288.69 74.6502L288.61 74.2502L286.35 72.4702L285.08 75.1002Z" fill="#5E2E87"/>
<path d="M286.35 72.4703L288.61 74.2503L287.64 69.7703L286.35 72.4703Z" fill="#5E2E87"/>
<path d="M286.8 82.8401L289.22 84.7201L290.34 82.3801L286.8 82.8401Z" fill="#5E2E87"/>
<path d="M287.64 69.7702L288.61 74.2502L289.07 74.6002L294.39 73.9402L308.08 45.3302C306.39 44.3602 303.95 43.0002 301.14 41.5502L287.64 69.7702V69.7702Z" fill="#5E2E87"/>
<path d="M288.61 74.2502L288.69 74.6502L289.07 74.6002L288.61 74.2502Z" fill="#5E2E87"/>
<path d="M288.69 74.6501L290.36 82.3601L292.7 77.4501L289.07 74.6001L288.69 74.6501Z" fill="#5E2E87"/>
<path d="M289.07 74.6002L292.7 77.4502L294.39 73.9302L289.07 74.6002Z" fill="#5E2E87"/>
<path d="M290.34 82.3801L289.22 84.7201L291.2 86.2601L290.36 82.3801H290.34Z" fill="#5E2E87"/>
<path d="M290.36 82.3601L290.34 82.3801H290.36V82.3601Z" fill="#5E2E87"/>
<path d="M290.36 82.3602V82.3802L297.81 81.4402L292.7 77.4502L290.36 82.3602Z" fill="#5E2E87"/>
<path d="M290.36 82.3802L291.2 86.2702L317.57 106.9C318.96 104.34 320.14 101.7 321.01 99.5902L297.81 81.4402L290.35 82.3802H290.36Z" fill="#5E2E87"/>
<path d="M292.7 77.45L297.82 81.44L326.08 77.87C326.18 75.58 326.04 73.36 325.57 71.45C325.46 71 325.32 70.53 325.15 70.05L294.4 73.94L292.71 77.45H292.7Z" fill="#5E2E87"/>
</g>
<defs>
<clipPath id="clip0_1772_44216">
<rect width="400" height="400" fill="white" transform="matrix(-1 0 0 1 400 0)"/>
</clipPath>
</defs>
</svg>
