<svg width="400" height="400" viewBox="0 0 400 400" fill="none" xmlns="http://www.w3.org/2000/svg">
<path d="M90.4053 170.725L74.5206 229.16C74.5206 229.16 70.2099 247.272 68.4384 254.206C66.6668 261.14 67.9744 266.919 75.0689 264.472C77.2369 263.73 81.4717 256.602 81.4717 256.602C81.4717 256.602 81.4717 261.005 84.1374 261.132C87.866 261.318 89.4689 243.526 89.4689 243.526L106.627 209.167L115.131 180.081L117.552 168.49L90.4053 170.708V170.725Z" fill="#EB7357"/>
<path d="M107.032 291.576C106.003 292.454 103.202 317.753 103.202 317.753L100.604 353.715L101.051 374.492C101.051 374.492 101.751 385.087 105.607 388.032C109.462 390.976 113.621 388.032 113.621 388.032C113.621 388.032 121.533 377.917 125.363 364.327C129.522 349.598 132.66 339.728 132.66 339.728L144.782 302.442L107.032 291.585V291.576Z" fill="#EB7357"/>
<path d="M155.564 303.834L156.458 332.254L160.727 365.5L164.464 382.034C164.464 382.034 166.741 388.015 169.508 388.648C172.275 389.28 175.751 387.011 175.751 387.011C175.751 387.011 179.927 382.034 182.154 374.746C184.372 367.457 186.684 319.449 186.684 319.449L187.569 305.935L155.564 303.826V303.834Z" fill="#EB7357"/>
<path d="M182.154 192.59L199.22 212.592C199.22 212.592 218.284 234.972 225.649 238.498C233.013 242.016 237.274 238.498 237.274 238.498C237.274 238.498 241.036 234.061 239.172 227.844C236.438 218.75 224.291 203.658 224.291 203.658L199.489 175.255L182.154 192.59V192.59Z" fill="#EB7357"/>
<path d="M241.094 257.251L233.24 244.387C233.24 244.387 229.959 239.334 229.141 235.225C228.322 231.117 231.224 227.372 231.224 227.372C231.224 227.372 234.109 224.647 238.816 226.663C243.524 228.679 253.048 238.051 253.048 238.051L269.801 255.8L251.757 270.099L241.086 257.26L241.094 257.251Z" fill="#EF9EA8"/>
<path d="M265.828 337.138L263.854 367.878C263.854 367.878 264.908 382.464 265.794 385.897C266.68 389.33 270.788 391.878 275.639 389.39C280.489 386.901 287.061 359.915 287.061 359.915L292.679 340.723L299.2 360.075C299.2 360.075 301.891 370.628 304.734 378.263C307.265 385.062 311.803 389.896 315.11 389.331C318.417 388.765 323.149 382.742 322.213 370.831C321.277 358.919 317.717 333.637 317.717 333.637L315.118 310.025L269.818 308.161L265.836 337.138H265.828Z" fill="#F2CD5E"/>
<path d="M330.649 298.232L336.022 315.163C336.022 315.163 337.726 323.616 338.038 327.859C338.351 332.102 338.342 341.255 334.403 340.706C330.455 340.158 327.603 334.38 327.603 334.38C327.603 334.38 326.498 338.058 324.128 336.025C322.618 334.734 321.319 325.007 321.319 325.007L314.832 305.276L329.847 296.283L330.657 298.232H330.649Z" fill="#EF9EA8"/>
<path d="M247.042 267.003L265.719 247.331L281.266 263.797L297.117 269.137C297.117 269.137 304.844 269.61 313.592 274.671C322.34 279.733 333.694 294.124 333.694 294.124L314.832 305.276L315.119 310.034H266.579L265.314 284.879L247.05 267.012L247.042 267.003Z" fill="#5E2E87"/>
<path d="M294.063 237.495C290.697 237.891 284.801 241.122 282.278 243.383C279.57 245.821 277.301 252.198 277.175 255.842C277.065 259.099 278.955 266.1 280.971 268.656C283.232 271.516 289.255 274.857 292.832 275.54C295.987 276.139 302.271 275.177 305.207 273.878C307.78 272.748 311.18 269.331 312.757 267.003C314.351 264.658 316.241 259.672 316.199 256.838C316.157 253.826 313.609 246.825 311.576 244.597C309.492 242.311 305.612 239.73 302.676 238.76C300.609 238.077 296.214 237.233 294.055 237.495H294.063Z" fill="#C83423"/>
<path d="M198.063 162.449L213.973 180.468L183.022 207.615L170.546 193.923L170.25 210.086C170.25 210.086 162.473 211.461 159.849 211.714C155.513 212.128 146.799 212.355 142.446 212.347C138.515 212.347 130.636 212.052 126.713 211.714C123.997 211.478 115.915 210.28 115.915 210.28L114.312 196.943L108.669 215.527L91.7889 209.555L68.4385 196.943L82.4926 173.568C82.4926 173.568 89.7811 163.521 95.2896 157.118C100.807 150.715 112.364 143.249 112.364 143.249L132.989 134.358L163.924 137.918C163.924 137.918 176.366 142.178 182.153 146.801C187.932 151.424 198.063 162.449 198.063 162.449V162.449Z" fill="#A27CF5"/>
<path d="M212.641 332.127L198.063 334.97C198.063 334.97 186.684 336.927 173.988 334.97C161.3 333.021 156.989 328.213 147.744 328.213C138.498 328.213 134.584 331.773 121.61 333.553C108.627 335.333 99.7355 334.97 91.6034 333.553C83.4628 332.127 71.1129 326.079 71.1129 326.079L79.2871 306.575L94.3535 254.155L115.915 210.28C115.915 210.28 123.997 211.478 126.713 211.714C130.636 212.052 138.515 212.339 142.446 212.347C146.799 212.356 155.513 212.128 159.849 211.714C162.473 211.461 170.251 210.086 170.251 210.086C170.251 210.086 178.568 216.751 184.904 224.149C191.61 231.977 198.595 251 198.595 251C198.595 251 203.53 268.597 206.955 281.049C210.371 293.5 212.641 332.127 212.641 332.127V332.127Z" fill="#4E7043"/>
<path d="M147.01 84.5871C154.357 84.0135 157.335 85.4813 157.335 85.4813C157.335 85.4813 163.983 86.6791 168.665 91.5129C173.346 96.3466 176.08 99.8559 176.425 106.638C176.771 113.421 175.253 115.158 175.042 119.385C174.831 123.611 181.732 125.501 180.711 135.075C179.69 144.65 171.372 141.36 172.334 146.843C173.296 152.327 178.231 152.124 181.428 159.404C184.625 166.684 182.533 173.661 182.533 173.661C182.533 173.661 182.204 180.14 176.324 185.977C170.444 191.815 165.611 187.023 161.848 193.696C158.086 200.369 161.73 201.069 158.238 207.817C154.189 215.663 147.786 215.756 147.786 215.756C147.786 215.756 139.24 218.092 133.124 212.356C127 206.62 127.633 203.718 126.764 197.155C125.895 190.592 127.354 189.174 124.385 185.64C120.85 181.422 119.045 185.1 113.46 180.334C107.876 175.567 106.585 168.346 106.585 168.346C106.585 168.346 105.354 158.451 108.914 153.137C112.473 147.822 113.73 148.649 114.726 144.473C115.721 140.306 110.567 139.833 107.766 133.135C104.966 126.437 110.23 121.587 110.23 121.587L116.548 116.39C116.548 116.39 120.698 114.458 123.567 109.793C126.055 105.753 125.751 98.6917 129.193 93.8918C132.627 89.1002 136.322 87.0166 136.322 87.0166C136.322 87.0166 139.671 85.1438 147.027 84.5702L147.01 84.5871Z" fill="#3B3A3A"/>
</svg>
