<svg width="19" height="20" viewBox="0 0 19 20" fill="none" xmlns="http://www.w3.org/2000/svg">
<path d="M13.3645 12.1647H12.5515L12.2633 11.8869C13.2719 10.7136 13.8791 9.19048 13.8791 7.53353C13.8791 3.83885 10.8842 0.843994 7.18954 0.843994C3.49485 0.843994 0.5 3.83885 0.5 7.53353C0.5 11.2282 3.49485 14.2231 7.18954 14.2231C8.84648 14.2231 10.3696 13.6159 11.5429 12.6073L11.8208 12.8955V13.7085L16.9666 18.844L18.5 17.3105L13.3645 12.1647V12.1647ZM7.18954 12.1647C4.62693 12.1647 2.55832 10.0961 2.55832 7.53353C2.55832 4.97092 4.62693 2.90231 7.18954 2.90231C9.75214 2.90231 11.8208 4.97092 11.8208 7.53353C11.8208 10.0961 9.75214 12.1647 7.18954 12.1647Z" fill="#E95024"/>
</svg>
