<svg width="116" height="19" viewBox="0 0 116 19" fill="none" xmlns="http://www.w3.org/2000/svg">
<path d="M10 15.27L16.18 19L14.54 11.97L20 7.24L12.81 6.63L10 0L7.19 6.63L0 7.24L5.46 11.97L3.82 19L10 15.27Z" fill="#E95024"/>
<path d="M58 15.27L64.18 19L62.54 11.97L68 7.24L60.81 6.63L58 0L55.19 6.63L48 7.24L53.46 11.97L51.82 19L58 15.27Z" fill="#E95024"/>
<path d="M34 15.27L40.18 19L38.54 11.97L44 7.24L36.81 6.63L34 0L31.19 6.63L24 7.24L29.46 11.97L27.82 19L34 15.27Z" fill="#E95024"/>
<path d="M82 15.27L88.18 19L86.54 11.97L92 7.24L84.81 6.63L82 0L79.19 6.63L72 7.24L77.46 11.97L75.82 19L82 15.27Z" fill="#E95024"/>
<path d="M106 15.27L112.18 19L110.54 11.97L116 7.24L108.81 6.63L106 0L103.19 6.63L96 7.24L101.46 11.97L99.82 19L106 15.27Z" fill="#E95024"/>
</svg>
